# Blender 3.5.0
# www.blender.org
mtllib player.mtl
o Cube
v -0.500000 0.500000 -0.500000
v -0.500000 -0.500000 -0.500000
v 0.500000 0.500000 -0.500000
v 0.500000 -0.500000 -0.500000
v -0.500000 0.500000 0.500000
v -0.500000 -0.500000 0.500000
v 0.500000 0.500000 0.500000
v 0.500000 -0.500000 0.500000
v -0.296650 -0.572933 0.572933
v 0.000000 -0.609568 0.609568
v 0.296650 -0.572933 0.572933
v -0.572933 -0.572933 -0.296650
v -0.609568 -0.609568 0.000000
v -0.572933 -0.572933 0.296650
v -0.572933 0.296650 -0.572933
v -0.609568 0.000000 -0.609568
v -0.572933 -0.296650 -0.572933
v 0.572933 -0.296650 0.572933
v 0.609568 -0.000000 0.609568
v 0.572933 0.296650 0.572933
v 0.572933 0.296650 -0.572933
v 0.609568 0.000000 -0.609568
v 0.572933 -0.296650 -0.572933
v -0.572933 0.296650 0.572933
v -0.609568 -0.000000 0.609568
v -0.572933 -0.296650 0.572933
v 0.572933 0.572933 -0.296650
v 0.609568 0.609568 -0.000000
v 0.572933 0.572933 0.296650
v -0.296650 0.572933 -0.572933
v -0.000000 0.609568 -0.609568
v 0.296650 0.572933 -0.572933
v 0.572933 -0.572933 0.296650
v 0.609568 -0.609568 -0.000000
v 0.572933 -0.572933 -0.296650
v 0.296650 0.572933 0.572933
v 0.000000 0.609568 0.609568
v -0.296650 0.572933 0.572933
v -0.572933 0.572933 0.296650
v -0.609568 0.609568 0.000000
v -0.572933 0.572933 -0.296650
v 0.296650 -0.572933 -0.572933
v -0.000000 -0.609568 -0.609568
v -0.296650 -0.572933 -0.572933
v -0.316157 0.728990 -0.316157
v -0.333140 0.781829 0.000000
v -0.316157 0.728990 0.316157
v -0.000000 0.781829 -0.333140
v -0.000000 0.839506 0.000000
v 0.000000 0.781829 0.333140
v 0.316157 0.728990 -0.316157
v 0.333140 0.781829 -0.000000
v 0.316157 0.728990 0.316157
v 0.728990 -0.316157 -0.316157
v 0.781829 -0.000000 -0.333141
v 0.728990 0.316157 -0.316157
v 0.781829 -0.333140 -0.000000
v 0.839506 0.000000 -0.000000
v 0.781829 0.333140 -0.000000
v 0.728990 -0.316157 0.316157
v 0.781829 0.000000 0.333140
v 0.728990 0.316157 0.316157
v 0.316157 -0.316157 0.728990
v 0.333140 -0.000000 0.781829
v 0.316157 0.316157 0.728990
v 0.000000 -0.333140 0.781829
v 0.000000 0.000000 0.839506
v 0.000000 0.333140 0.781829
v -0.316157 -0.316157 0.728990
v -0.333140 0.000000 0.781829
v -0.316157 0.316157 0.728990
v -0.316157 -0.728990 0.316157
v -0.333140 -0.781829 0.000000
v -0.316157 -0.728990 -0.316157
v 0.000000 -0.781829 0.333140
v 0.000000 -0.839506 -0.000000
v -0.000000 -0.781829 -0.333140
v 0.316157 -0.728990 0.316157
v 0.333140 -0.781829 -0.000000
v 0.316157 -0.728990 -0.316157
v -0.316157 -0.316157 -0.728990
v -0.333141 -0.000000 -0.781829
v -0.316157 0.316157 -0.728990
v -0.000000 -0.333140 -0.781829
v -0.000000 0.000000 -0.839506
v -0.000000 0.333140 -0.781829
v 0.316157 -0.316157 -0.728990
v 0.333140 0.000000 -0.781829
v 0.316157 0.316157 -0.728990
v -0.728990 -0.316157 0.316157
v -0.781829 -0.000000 0.333140
v -0.728990 0.316157 0.316157
v -0.781829 -0.333140 0.000000
v -0.839506 0.000000 0.000000
v -0.781829 0.333140 0.000000
v -0.728990 -0.316157 -0.316157
v -0.781829 0.000000 -0.333140
v -0.728990 0.316157 -0.316157
vn -0.1713 0.9708 -0.1681
vn -0.1681 0.9708 0.1713
vn 0.1713 0.9708 -0.1681
vn 0.1681 0.9708 0.1713
vn -0.4446 0.7501 -0.4896
vn -0.5213 0.8367 -0.1678
vn -0.5214 0.8367 0.1677
vn -0.4896 0.7501 0.4446
vn -0.1678 0.8367 0.5213
vn 0.1678 0.8367 0.5213
vn 0.4896 0.7501 0.4446
vn 0.5214 0.8367 0.1677
vn 0.5213 0.8367 -0.1678
vn 0.4446 0.7501 -0.4896
vn 0.1677 0.8367 -0.5214
vn -0.1677 0.8367 -0.5214
vn 0.9708 -0.1681 -0.1713
vn 0.9708 0.1713 -0.1681
vn 0.9708 -0.1681 0.1713
vn 0.9708 0.1713 0.1681
vn 0.7501 -0.4896 -0.4446
vn 0.8367 -0.1678 -0.5213
vn 0.8367 0.1677 -0.5214
vn 0.7501 0.4446 -0.4896
vn 0.8367 0.5213 -0.1678
vn 0.8367 0.5213 0.1678
vn 0.7501 0.4446 0.4896
vn 0.8367 0.1677 0.5214
vn 0.8367 -0.1678 0.5213
vn 0.7501 -0.4896 0.4446
vn 0.8367 -0.5214 0.1677
vn 0.8367 -0.5214 -0.1677
vn 0.1713 -0.1681 0.9708
vn 0.1681 0.1713 0.9708
vn -0.1713 -0.1681 0.9708
vn -0.1681 0.1713 0.9708
vn 0.4446 -0.4896 0.7501
vn 0.5213 -0.1678 0.8367
vn 0.5214 0.1677 0.8367
vn 0.4896 0.4446 0.7501
vn 0.1678 0.5213 0.8367
vn -0.1678 0.5213 0.8367
vn -0.4896 0.4446 0.7501
vn -0.5214 0.1677 0.8367
vn -0.5213 -0.1678 0.8367
vn -0.4446 -0.4896 0.7501
vn -0.1677 -0.5214 0.8367
vn 0.1677 -0.5214 0.8367
vn -0.1713 -0.9708 0.1681
vn -0.1681 -0.9708 -0.1713
vn 0.1713 -0.9708 0.1681
vn 0.1681 -0.9708 -0.1713
vn -0.4446 -0.7501 0.4896
vn -0.5213 -0.8367 0.1678
vn -0.5214 -0.8367 -0.1677
vn -0.4896 -0.7501 -0.4446
vn -0.1678 -0.8367 -0.5213
vn 0.1678 -0.8367 -0.5213
vn 0.4896 -0.7501 -0.4446
vn 0.5214 -0.8367 -0.1677
vn 0.5213 -0.8367 0.1678
vn 0.4446 -0.7501 0.4896
vn 0.1677 -0.8367 0.5214
vn -0.1677 -0.8367 0.5214
vn -0.1713 -0.1681 -0.9708
vn -0.1681 0.1713 -0.9708
vn 0.1713 -0.1681 -0.9708
vn 0.1681 0.1713 -0.9708
vn -0.4446 -0.4896 -0.7501
vn -0.5213 -0.1678 -0.8367
vn -0.5214 0.1677 -0.8367
vn -0.4896 0.4446 -0.7501
vn -0.1678 0.5213 -0.8367
vn 0.1678 0.5213 -0.8367
vn 0.4896 0.4446 -0.7501
vn 0.5214 0.1677 -0.8367
vn 0.5213 -0.1678 -0.8367
vn 0.4446 -0.4896 -0.7501
vn 0.1677 -0.5214 -0.8367
vn -0.1677 -0.5214 -0.8367
vn -0.9708 -0.1681 0.1713
vn -0.9708 0.1713 0.1681
vn -0.9708 -0.1681 -0.1713
vn -0.9708 0.1713 -0.1681
vn -0.7501 -0.4896 0.4446
vn -0.8367 -0.1678 0.5213
vn -0.8367 0.1677 0.5214
vn -0.7501 0.4446 0.4896
vn -0.8367 0.5213 0.1678
vn -0.8367 0.5213 -0.1678
vn -0.7501 0.4446 -0.4896
vn -0.8367 0.1677 -0.5214
vn -0.8367 -0.1678 -0.5213
vn -0.7501 -0.4896 -0.4446
vn -0.8367 -0.5214 -0.1677
vn -0.8367 -0.5214 0.1677
vn -0.1681 0.9708 -0.1713
vn -0.1713 0.9708 0.1681
vn 0.1681 0.9708 -0.1713
vn 0.1713 0.9708 0.1681
vn -0.4896 0.7501 -0.4446
vn -0.5214 0.8367 -0.1677
vn -0.5213 0.8367 0.1678
vn -0.4446 0.7501 0.4896
vn -0.1677 0.8367 0.5214
vn 0.1677 0.8367 0.5214
vn 0.4446 0.7501 0.4896
vn 0.5213 0.8367 0.1678
vn 0.5214 0.8367 -0.1677
vn 0.4896 0.7501 -0.4446
vn 0.1678 0.8367 -0.5213
vn -0.1678 0.8367 -0.5213
vn 0.9708 -0.1713 -0.1681
vn 0.9708 0.1681 -0.1713
vn 0.9708 -0.1713 0.1681
vn 0.9708 0.1681 0.1713
vn 0.7501 -0.4446 -0.4896
vn 0.8367 -0.1677 -0.5214
vn 0.8367 0.1678 -0.5213
vn 0.7501 0.4896 -0.4446
vn 0.8367 0.5214 -0.1677
vn 0.8367 0.5214 0.1677
vn 0.7501 0.4896 0.4446
vn 0.8367 0.1678 0.5213
vn 0.8367 -0.1677 0.5214
vn 0.7501 -0.4446 0.4896
vn 0.8367 -0.5213 0.1678
vn 0.8367 -0.5213 -0.1678
vn 0.1681 -0.1713 0.9708
vn 0.1713 0.1681 0.9708
vn -0.1681 -0.1713 0.9708
vn -0.1713 0.1681 0.9708
vn 0.4896 -0.4446 0.7501
vn 0.5214 -0.1677 0.8367
vn 0.5213 0.1678 0.8367
vn 0.4446 0.4896 0.7501
vn 0.1677 0.5214 0.8367
vn -0.1677 0.5214 0.8367
vn -0.4446 0.4896 0.7501
vn -0.5213 0.1678 0.8367
vn -0.5214 -0.1677 0.8367
vn -0.4896 -0.4446 0.7501
vn -0.1678 -0.5213 0.8367
vn 0.1678 -0.5213 0.8367
vn -0.1681 -0.9708 0.1713
vn -0.1713 -0.9708 -0.1681
vn 0.1681 -0.9708 0.1713
vn 0.1713 -0.9708 -0.1681
vn -0.4896 -0.7501 0.4446
vn -0.5214 -0.8367 0.1677
vn -0.5213 -0.8367 -0.1678
vn -0.4446 -0.7501 -0.4896
vn -0.1677 -0.8367 -0.5214
vn 0.1677 -0.8367 -0.5214
vn 0.4446 -0.7501 -0.4896
vn 0.5213 -0.8367 -0.1678
vn 0.5214 -0.8367 0.1677
vn 0.4896 -0.7501 0.4446
vn 0.1678 -0.8367 0.5213
vn -0.1678 -0.8367 0.5213
vn -0.1681 -0.1713 -0.9708
vn -0.1713 0.1681 -0.9708
vn 0.1681 -0.1713 -0.9708
vn 0.1713 0.1681 -0.9708
vn -0.4896 -0.4446 -0.7501
vn -0.5214 -0.1677 -0.8367
vn -0.5213 0.1678 -0.8367
vn -0.4446 0.4896 -0.7501
vn -0.1677 0.5214 -0.8367
vn 0.1677 0.5214 -0.8367
vn 0.4446 0.4896 -0.7501
vn 0.5213 0.1678 -0.8367
vn 0.5214 -0.1677 -0.8367
vn 0.4896 -0.4446 -0.7501
vn 0.1678 -0.5213 -0.8367
vn -0.1678 -0.5213 -0.8367
vn -0.9708 -0.1713 0.1681
vn -0.9708 0.1681 0.1713
vn -0.9708 -0.1713 -0.1681
vn -0.9708 0.1681 -0.1713
vn -0.7501 -0.4446 0.4896
vn -0.8367 -0.1677 0.5214
vn -0.8367 0.1678 0.5213
vn -0.7501 0.4896 0.4446
vn -0.8367 0.5214 0.1677
vn -0.8367 0.5214 -0.1677
vn -0.7501 0.4896 -0.4446
vn -0.8367 0.1678 -0.5213
vn -0.8367 -0.1677 -0.5214
vn -0.7501 -0.4446 -0.4896
vn -0.8367 -0.5213 -0.1678
vn -0.8367 -0.5213 0.1678
vt 0.625000 0.500000
vt 0.375000 0.500000
vt 0.625000 0.750000
vt 0.375000 0.750000
vt 0.875000 0.500000
vt 0.625000 0.250000
vt 0.125000 0.500000
vt 0.375000 0.250000
vt 0.875000 0.750000
vt 0.625000 1.000000
vt 0.625000 0.000000
vt 0.375000 1.000000
vt 0.375000 0.000000
vt 0.125000 0.750000
vt 0.375000 0.187500
vt 0.125000 0.562500
vt 0.375000 0.125000
vt 0.125000 0.625000
vt 0.375000 0.062500
vt 0.125000 0.687500
vt 0.312500 0.500000
vt 0.375000 0.437500
vt 0.375000 0.375000
vt 0.250000 0.500000
vt 0.187500 0.500000
vt 0.375000 0.312500
vt 0.562500 0.500000
vt 0.500000 0.500000
vt 0.437500 0.500000
vt 0.437500 1.000000
vt 0.437500 0.000000
vt 0.500000 1.000000
vt 0.500000 0.000000
vt 0.562500 1.000000
vt 0.562500 0.000000
vt 0.562500 0.750000
vt 0.500000 0.750000
vt 0.437500 0.750000
vt 0.562500 0.250000
vt 0.500000 0.250000
vt 0.437500 0.250000
vt 0.687500 0.750000
vt 0.625000 0.812500
vt 0.750000 0.750000
vt 0.625000 0.875000
vt 0.812500 0.750000
vt 0.625000 0.937500
vt 0.625000 0.562500
vt 0.625000 0.625000
vt 0.625000 0.687500
vt 0.375000 0.937500
vt 0.187500 0.750000
vt 0.375000 0.875000
vt 0.250000 0.750000
vt 0.375000 0.812500
vt 0.312500 0.750000
vt 0.875000 0.687500
vt 0.625000 0.062500
vt 0.875000 0.625000
vt 0.625000 0.125000
vt 0.875000 0.562500
vt 0.625000 0.187500
vt 0.812500 0.500000
vt 0.625000 0.312500
vt 0.750000 0.500000
vt 0.625000 0.375000
vt 0.687500 0.500000
vt 0.625000 0.437500
vt 0.375000 0.687500
vt 0.375000 0.625000
vt 0.375000 0.562500
vt 0.687500 0.562500
vt 0.750000 0.562500
vt 0.812500 0.562500
vt 0.687500 0.625000
vt 0.750000 0.625000
vt 0.812500 0.625000
vt 0.687500 0.687500
vt 0.750000 0.687500
vt 0.812500 0.687500
vt 0.437500 0.812500
vt 0.500000 0.812500
vt 0.562500 0.812500
vt 0.437500 0.875000
vt 0.500000 0.875000
vt 0.562500 0.875000
vt 0.437500 0.937500
vt 0.500000 0.937500
vt 0.562500 0.937500
vt 0.437500 0.062500
vt 0.500000 0.062500
vt 0.562500 0.062500
vt 0.437500 0.125000
vt 0.500000 0.125000
vt 0.562500 0.125000
vt 0.437500 0.187500
vt 0.500000 0.187500
vt 0.562500 0.187500
vt 0.187500 0.562500
vt 0.250000 0.562500
vt 0.312500 0.562500
vt 0.187500 0.625000
vt 0.250000 0.625000
vt 0.312500 0.625000
vt 0.187500 0.687500
vt 0.250000 0.687500
vt 0.312500 0.687500
vt 0.437500 0.562500
vt 0.500000 0.562500
vt 0.562500 0.562500
vt 0.437500 0.625000
vt 0.500000 0.625000
vt 0.562500 0.625000
vt 0.437500 0.687500
vt 0.500000 0.687500
vt 0.562500 0.687500
vt 0.437500 0.312500
vt 0.500000 0.312500
vt 0.562500 0.312500
vt 0.437500 0.375000
vt 0.500000 0.375000
vt 0.562500 0.375000
vt 0.437500 0.437500
vt 0.500000 0.437500
vt 0.562500 0.437500
s 0
usemtl Material
f 45/72/1 49/76/1 48/75/1
f 47/74/2 49/76/2 46/73/2
f 49/76/3 51/78/3 48/75/3
f 49/76/4 53/80/4 52/79/4
f 1/1/5 45/72/5 30/48/5
f 41/67/6 46/73/6 45/72/6
f 39/63/7 46/73/7 40/65/7
f 5/5/8 47/74/8 39/63/8
f 38/61/9 50/77/9 47/74/9
f 50/77/10 36/57/10 53/80/10
f 53/80/11 7/9/11 29/46/11
f 52/79/12 29/46/12 28/44/12
f 52/79/13 27/42/13 51/78/13
f 51/78/14 3/3/14 32/50/14
f 48/75/15 32/50/15 31/49/15
f 30/48/16 48/75/16 31/49/16
f 54/81/17 58/85/17 57/84/17
f 56/83/18 58/85/18 55/82/18
f 58/85/19 60/87/19 57/84/19
f 58/85/20 62/89/20 61/88/20
f 4/4/21 54/81/21 35/55/21
f 23/38/22 55/82/22 54/81/22
f 21/36/23 55/82/23 22/37/23
f 3/3/24 56/83/24 21/36/24
f 27/43/25 59/86/25 56/83/25
f 59/86/26 29/47/26 62/89/26
f 62/89/27 7/10/27 20/34/27
f 61/88/28 20/34/28 19/32/28
f 61/88/29 18/30/29 60/87/29
f 60/87/30 8/12/30 33/51/30
f 57/84/31 33/51/31 34/53/31
f 35/55/32 57/84/32 34/53/32
f 63/90/33 67/94/33 66/93/33
f 65/92/34 67/94/34 64/91/34
f 67/94/35 69/96/35 66/93/35
f 67/94/36 71/98/36 70/97/36
f 8/13/37 63/90/37 11/19/37
f 18/31/38 64/91/38 63/90/38
f 20/35/39 64/91/39 19/33/39
f 7/11/40 65/92/40 20/35/40
f 36/58/41 68/95/41 65/92/41
f 68/95/42 38/62/42 71/98/42
f 71/98/43 5/6/43 24/39/43
f 70/97/44 24/39/44 25/40/44
f 70/97/45 26/41/45 69/96/45
f 69/96/46 6/8/46 9/15/46
f 66/93/47 9/15/47 10/17/47
f 11/19/48 66/93/48 10/17/48
f 72/99/49 76/103/49 75/102/49
f 74/101/50 76/103/50 73/100/50
f 76/103/51 78/105/51 75/102/51
f 76/103/52 80/107/52 79/106/52
f 6/7/53 72/99/53 9/16/53
f 14/25/54 73/100/54 72/99/54
f 12/21/55 73/100/55 13/24/55
f 2/2/56 74/101/56 12/21/56
f 44/71/57 77/104/57 74/101/57
f 77/104/58 42/69/58 80/107/58
f 80/107/59 4/4/59 35/56/59
f 79/106/60 35/56/60 34/54/60
f 79/106/61 33/52/61 78/105/61
f 78/105/62 8/14/62 11/20/62
f 75/102/63 11/20/63 10/18/63
f 9/16/64 75/102/64 10/18/64
f 81/108/65 85/112/65 84/111/65
f 83/110/66 85/112/66 82/109/66
f 85/112/67 87/114/67 84/111/67
f 85/112/68 89/116/68 88/115/68
f 2/2/69 81/108/69 44/71/69
f 17/29/70 82/109/70 81/108/70
f 15/27/71 82/109/71 16/28/71
f 1/1/72 83/110/72 15/27/72
f 30/48/73 86/113/73 83/110/73
f 86/113/74 32/50/74 89/116/74
f 89/116/75 3/3/75 21/36/75
f 88/115/76 21/36/76 22/37/76
f 88/115/77 23/38/77 87/114/77
f 87/114/78 4/4/78 42/69/78
f 84/111/79 42/69/79 43/70/79
f 44/71/80 84/111/80 43/70/80
f 90/117/81 94/121/81 93/120/81
f 92/119/82 94/121/82 91/118/82
f 94/121/83 96/123/83 93/120/83
f 94/121/84 98/125/84 97/124/84
f 6/8/85 90/117/85 14/26/85
f 26/41/86 91/118/86 90/117/86
f 24/39/87 91/118/87 25/40/87
f 5/6/88 92/119/88 24/39/88
f 39/64/89 95/122/89 92/119/89
f 95/122/90 41/68/90 98/125/90
f 98/125/91 1/1/91 15/27/91
f 97/124/92 15/27/92 16/28/92
f 97/124/93 17/29/93 96/123/93
f 96/123/94 2/2/94 12/22/94
f 93/120/95 12/22/95 13/23/95
f 14/26/96 93/120/96 13/23/96
f 45/72/97 46/73/97 49/76/97
f 47/74/98 50/77/98 49/76/98
f 49/76/99 52/79/99 51/78/99
f 49/76/100 50/77/100 53/80/100
f 1/1/101 41/67/101 45/72/101
f 41/67/102 40/65/102 46/73/102
f 39/63/103 47/74/103 46/73/103
f 5/5/104 38/61/104 47/74/104
f 38/61/105 37/59/105 50/77/105
f 50/77/106 37/59/106 36/57/106
f 53/80/107 36/57/107 7/9/107
f 52/79/108 53/80/108 29/46/108
f 52/79/109 28/44/109 27/42/109
f 51/78/110 27/42/110 3/3/110
f 48/75/111 51/78/111 32/50/111
f 30/48/112 45/72/112 48/75/112
f 54/81/113 55/82/113 58/85/113
f 56/83/114 59/86/114 58/85/114
f 58/85/115 61/88/115 60/87/115
f 58/85/116 59/86/116 62/89/116
f 4/4/117 23/38/117 54/81/117
f 23/38/118 22/37/118 55/82/118
f 21/36/119 56/83/119 55/82/119
f 3/3/120 27/43/120 56/83/120
f 27/43/121 28/45/121 59/86/121
f 59/86/122 28/45/122 29/47/122
f 62/89/123 29/47/123 7/10/123
f 61/88/124 62/89/124 20/34/124
f 61/88/125 19/32/125 18/30/125
f 60/87/126 18/30/126 8/12/126
f 57/84/127 60/87/127 33/51/127
f 35/55/128 54/81/128 57/84/128
f 63/90/129 64/91/129 67/94/129
f 65/92/130 68/95/130 67/94/130
f 67/94/131 70/97/131 69/96/131
f 67/94/132 68/95/132 71/98/132
f 8/13/133 18/31/133 63/90/133
f 18/31/134 19/33/134 64/91/134
f 20/35/135 65/92/135 64/91/135
f 7/11/136 36/58/136 65/92/136
f 36/58/137 37/60/137 68/95/137
f 68/95/138 37/60/138 38/62/138
f 71/98/139 38/62/139 5/6/139
f 70/97/140 71/98/140 24/39/140
f 70/97/141 25/40/141 26/41/141
f 69/96/142 26/41/142 6/8/142
f 66/93/143 69/96/143 9/15/143
f 11/19/144 63/90/144 66/93/144
f 72/99/145 73/100/145 76/103/145
f 74/101/146 77/104/146 76/103/146
f 76/103/147 79/106/147 78/105/147
f 76/103/148 77/104/148 80/107/148
f 6/7/149 14/25/149 72/99/149
f 14/25/150 13/24/150 73/100/150
f 12/21/151 74/101/151 73/100/151
f 2/2/152 44/71/152 74/101/152
f 44/71/153 43/70/153 77/104/153
f 77/104/154 43/70/154 42/69/154
f 80/107/155 42/69/155 4/4/155
f 79/106/156 80/107/156 35/56/156
f 79/106/157 34/54/157 33/52/157
f 78/105/158 33/52/158 8/14/158
f 75/102/159 78/105/159 11/20/159
f 9/16/160 72/99/160 75/102/160
f 81/108/161 82/109/161 85/112/161
f 83/110/162 86/113/162 85/112/162
f 85/112/163 88/115/163 87/114/163
f 85/112/164 86/113/164 89/116/164
f 2/2/165 17/29/165 81/108/165
f 17/29/166 16/28/166 82/109/166
f 15/27/167 83/110/167 82/109/167
f 1/1/168 30/48/168 83/110/168
f 30/48/169 31/49/169 86/113/169
f 86/113/170 31/49/170 32/50/170
f 89/116/171 32/50/171 3/3/171
f 88/115/172 89/116/172 21/36/172
f 88/115/173 22/37/173 23/38/173
f 87/114/174 23/38/174 4/4/174
f 84/111/175 87/114/175 42/69/175
f 44/71/176 81/108/176 84/111/176
f 90/117/177 91/118/177 94/121/177
f 92/119/178 95/122/178 94/121/178
f 94/121/179 97/124/179 96/123/179
f 94/121/180 95/122/180 98/125/180
f 6/8/181 26/41/181 90/117/181
f 26/41/182 25/40/182 91/118/182
f 24/39/183 92/119/183 91/118/183
f 5/6/184 39/64/184 92/119/184
f 39/64/185 40/66/185 95/122/185
f 95/122/186 40/66/186 41/68/186
f 98/125/187 41/68/187 1/1/187
f 97/124/188 98/125/188 15/27/188
f 97/124/189 16/28/189 17/29/189
f 96/123/190 17/29/190 2/2/190
f 93/120/191 96/123/191 12/22/191
f 14/26/192 90/117/192 93/120/192
